# xmcd
#
# Track frame offsets:
#	150
#	14099
#	37143
#	81419
#	111654
#	133412
#	157801
#	178082
#	191924
#	212212
#	235965
#	254772
#	280989
#	302394
#	315126
#
# Disc length: 4465 seconds
#
# Revision: 4
# Processed by: cddbd v1.5.2PL0 Copyright (c) Steve Scherf et al.
# Submitted via: dBpowerAMP V4.0
#
DISCID=e4116f0f
DTITLE=Various Artist - CUBA CALIENTE ! Vol. 2 [CD1)
DYEAR=1900
DGENRE=Salsa
TTITLE0=Compay Segundo - Amor Loca Juventud
TTITLE1=Sierra Maestra - Dundunbanza
TTITLE2=Ruben Gonzalez - Almendra
TTITLE3=Afro-Cuban All Stars - Alto Songo
TTITLE4=Orlando Cachaito Lopez - Redencion
TTITLE5=Orchaestra Baobab - El Son Tellama
TTITLE6=Asere - El Diablo
TTITLE7=Melodias Cubanas - Juramento
TTITLE8=Septetonacional, Tata Guines and Chira - Lagrimas Negras
TTITLE9=Bobby Matos - Kimbisa
TTITLE10=Jack Costanzo - Bemba Colora
TTITLE11=Omar Sosa - Sister In Yellow
TTITLE12=Cuban Roots - Just Another Guajira
TTITLE13=P18 - La Verdolaga
TTITLE14=Orishas - 537 C.U.B.A.
EXTD=
EXTT0=
EXTT1=
EXTT2=
EXTT3=
EXTT4=
EXTT5=
EXTT6=
EXTT7=
EXTT8=
EXTT9=
EXTT10=
EXTT11=
EXTT12=
EXTT13=
EXTT14=
PLAYORDER=
